<svg width="60" height="160" viewBox="0 0 60 160" fill="none" xmlns="http://www.w3.org/2000/svg">
    <path
        d="M27.1716 158.828C28.7337 160.391 31.2663 160.391 32.8284 158.828L58.2843 133.373C59.8464 131.81 59.8464 129.278 58.2843 127.716C56.7222 126.154 54.1895 126.154 52.6274 127.716L30 150.343L7.37258 127.716C5.81049 126.154 3.27783 126.154 1.71573 127.716C0.153632 129.278 0.153632 131.81 1.71573 133.373L27.1716 158.828ZM26 56L26 156H34L34 56H26Z"
        fill="black"/>
    <circle cx="30" cy="56" r="4" fill="black"/>
    <circle cx="30" cy="43" r="4" fill="black"/>
    <circle cx="30" cy="30" r="4" fill="black"/>
    <circle cx="30" cy="17" r="4" fill="black"/>
    <circle cx="30" cy="4" r="4" fill="black"/>
</svg>
